<?xml version="1.0" encoding="utf-8"?>
<!-- Svg Vector Icons : http://www.onlinewebfonts.com/icon -->
<!DOCTYPE svg PUBLIC "-//W3C//DTD SVG 1.1//EN" "http://www.w3.org/Graphics/SVG/1.1/DTD/svg11.dtd">
<svg version="1.1" xmlns="http://www.w3.org/2000/svg" xmlns:xlink="http://www.w3.org/1999/xlink" x="0px" y="0px" viewBox="0 0 1000 1000" enable-background="new 0 0 1000 1000" xml:space="preserve">
<metadata> Svg Vector Icons : http://www.onlinewebfonts.com/icon </metadata>
<g><g transform="translate(0.000000,511.000000) scale(0.100000,-0.100000)"><path d="M2565.3,4828.8c-35.7-33.2-40.8-140.4-40.8-786c0-691.6,2.6-750.3,45.9-788.6c25.5-25.5,63.8-43.4,84.2-43.4c20.4,0,405.8,94.4,857.5,206.7l821.8,209.3l117.4-119.9c324.1-334.3,811.5-342,1133.1-20.4l140.4,140.4l834.5-211.8c533.4-135.3,852.4-204.2,888.1-191.4c30.6,10.2,66.3,45.9,81.6,81.7c12.8,33.2,23,367.5,23,742.6c0,742.7-10.2,803.9-132.7,816.7c-38.3,5.1-436.4-84.2-885.6-199.1l-816.6-206.7l-117.4,127.6c-160.8,171-329.2,242.5-574.2,245c-237.3,0-431.3-84.2-584.4-257.8L4339,4458.8l-803.9,204.2c-441.5,114.8-832,206.7-867.7,206.7C2634.2,4869.7,2585.7,4851.8,2565.3,4828.8z"/><path d="M730.4,3249.1c-250.1-145.5-477.2-283.3-507.9-308.8C94.9,2822.9,100,3011.7,100-844.5c0-2631.2,7.7-3616.3,28.1-3662.2C197-4657.2-78.6-4649.6,5000-4649.6s4803-7.7,4871.9,142.9c20.4,46,28.1,1005.5,28.1,3560.2c0,3440.2,0,3496.4-51,3595.9c-53.6,107.2-84.2,135.3-638,571.7c-204.2,160.8-377.7,283.3-385.4,275.6c-7.7-10.2-806.5-1538.9-1771.2-3399.4c-964.7-1860.5-1817.1-3501.5-1896.2-3646.9l-140.4-262.9l-171,326.7c-97,181.2-949.4,1822.2-1901.3,3646.9c-949.4,1824.7-1732.9,3325.3-1743.1,3335.6C1192.3,3504.3,980.5,3394.6,730.4,3249.1z"/><path d="M4900.5,2238.5c-326.7-61.2-556.4-408.3-484.9-737.5c114.8-535.9,803.9-689.1,1120.3-250.1C5872.8,1715.3,5467,2343.1,4900.5,2238.5z"/><path d="M4816.3,110c-155.7-58.7-270.5-160.8-342-311.4c-130.2-262.9-74-564,135.3-750.3c130.1-112.3,234.8-150.6,416-150.6c183.8,0,313.9,48.5,428.7,160.8c403.3,387.9,168.5,1046.4-385.3,1079.5C4971.9,143.2,4875,133,4816.3,110z"/></g></g>
</svg>