<svg id="Layer_1" data-name="Layer 1" xmlns="http://www.w3.org/2000/svg" viewBox="0 0 590.13 256.35"><defs><style>.cls-1{fill:#353535;}.cls-2{opacity:0.25;}.cls-3{fill:#fff;opacity:0.07;}</style></defs><title>logo</title><path class="cls-1" d="M595,157.21a229.5,229.5,0,0,1-6.88,50.66q-2.46,9.81-5.94,19.87a251.35,251.35,0,0,1-15.74,35.86,35.23,35.23,0,0,1-2.1,3.43c-5.68,8.15-14.1,12.3-22.62,10.87-32.22-5.41-111.11-24.73-194.32-90.84q-3.88-3.09-7.8-6.33V119.28q3.91-3.24,7.81-6.33C430.66,46.8,509.58,27.5,541.77,22.1c9.79-1.64,19.43,4.08,25,14.75,1.57,3,3.25,6.45,5,10.22a259.07,259.07,0,0,1,20.59,68.49A238.38,238.38,0,0,1,595,157.21Z" transform="translate(-4.94 -21.82)"/><path class="cls-1" d="M5,157.21a229.5,229.5,0,0,0,6.88,50.66q2.46,9.81,5.94,19.87A251.35,251.35,0,0,0,33.56,263.6a35.23,35.23,0,0,0,2.1,3.43c5.68,8.15,14.1,12.3,22.62,10.87,32.22-5.41,111.11-24.73,194.32-90.84q3.89-3.09,7.8-6.33V119.28q-3.91-3.24-7.81-6.33C169.34,46.8,90.42,27.5,58.23,22.1c-9.79-1.64-19.43,4.08-24.95,14.75-1.57,3-3.25,6.45-5,10.22A259.07,259.07,0,0,0,7.71,115.56,238.38,238.38,0,0,0,5,157.21Z" transform="translate(-4.94 -21.82)"/><path class="cls-2" d="M592.29,115.56c-46.52-4-161.6-9.34-252.69,25.45v-8s57.76-63.14,232.1-85.89A259.07,259.07,0,0,1,592.29,115.56Z" transform="translate(-4.94 -21.82)"/><path class="cls-2" d="M582.18,227.74a251.35,251.35,0,0,1-15.74,35.86,35.23,35.23,0,0,1-2.1,3.43c-49.75-15.19-155-51.43-224.74-104.62v-4.69S456.72,230.71,582.18,227.74Z" transform="translate(-4.94 -21.82)"/><path class="cls-2" d="M7.71,115.56c46.52-4,161.6-9.34,252.69,25.45v-8S202.64,69.82,28.3,47.07A259.07,259.07,0,0,0,7.71,115.56Z" transform="translate(-4.94 -21.82)"/><path class="cls-2" d="M17.82,227.74A251.35,251.35,0,0,0,33.56,263.6a35.23,35.23,0,0,0,2.1,3.43c49.75-15.19,155-51.43,224.74-104.62v-4.69S143.28,230.71,17.82,227.74Z" transform="translate(-4.94 -21.82)"/><path class="cls-3" d="M588.73,150c0-55.87-16.68-103.37-39.9-120.7,18.88,24.83,31.48,69.6,31.48,120.7s-12.6,95.87-31.48,120.7C572.05,253.37,588.73,205.87,588.73,150Z" transform="translate(-4.94 -21.82)"/><path class="cls-3" d="M11.27,150C11.27,94.13,28,46.63,51.17,29.3,32.29,54.13,19.69,98.9,19.69,150s12.6,95.87,31.48,120.7C28,253.37,11.27,205.87,11.27,150Z" transform="translate(-4.94 -21.82)"/><path class="cls-2" d="M349.27,185.53c-.61.52-1.23,1-1.87,1.53q-3.88-3.09-7.8-6.33V119.28q3.91-3.24,7.81-6.33c.63.49,1.25,1,1.86,1.52C349.27,114.47,359.26,152.07,349.27,185.53Z" transform="translate(-4.94 -21.82)"/><path class="cls-2" d="M250.73,185.53c.61.52,1.23,1,1.87,1.53q3.89-3.09,7.8-6.33V119.28q-3.91-3.24-7.81-6.33c-.63.49-1.25,1-1.86,1.52C250.73,114.47,240.74,152.07,250.73,185.53Z" transform="translate(-4.94 -21.82)"/><path class="cls-1" d="M348.22,153.3a116.67,116.67,0,0,1-4.43,32.23c-11.07,9.48-26.53,15.36-43.64,15.36-16.73,0-31.88-5.62-42.89-14.73-4.17-12.28-5.38-24.91-5.22-36.13a145,145,0,0,1,2-21.94,118.91,118.91,0,0,1,3.19-14.25c11-9.11,26.16-14.73,42.89-14.73,17.11,0,32.57,5.88,43.64,15.36,0,0,.94,3.54,1.95,9.4A168.07,168.07,0,0,1,348.22,153.3Z" transform="translate(-4.94 -21.82)"/><path class="cls-2" d="M345.74,123.87c-1-5.86-1.95-9.4-1.95-9.4a61.62,61.62,0,0,0-14.73-9.28c-3.35,79.58-51.22,77.64-74.34,72,.69,3,1.53,6,2.54,9,11,9.11,26.16,14.73,42.89,14.73,17.11,0,32.57-5.88,43.64-15.36a116.67,116.67,0,0,0,4.43-32.23A168.07,168.07,0,0,0,345.74,123.87Z" transform="translate(-4.94 -21.82)"/></svg>